<svg width="29" height="29" viewBox="0 0 29 29" fill="none" xmlns="http://www.w3.org/2000/svg">
<rect width="29" height="29" rx="6" fill="#1FC434"/>
<path fill-rule="evenodd" clip-rule="evenodd" d="M14.9069 7.68098C14.9674 7.76578 15 7.86738 15 7.9716V22.5284C15 22.8045 14.7761 23.0284 14.5 23.0284C14.3958 23.0284 14.2942 22.9958 14.2094 22.9353L8 18.5H6C5.44772 18.5 5 18.0523 5 17.5V13C5 12.4477 5.44772 12 6 12H8L14.2094 7.56473C14.4341 7.40422 14.7464 7.45627 14.9069 7.68098ZM21.2548 7.38934C21.454 7.19808 21.7706 7.20451 21.9618 7.4037C23.8814 9.40288 24.9 11.9907 24.9 14.8282C24.9 17.5113 23.8519 20.0521 21.967 22.0895C21.7795 22.2922 21.4632 22.3046 21.2605 22.117C21.0578 21.9295 21.0454 21.6132 21.233 21.4105C22.951 19.5533 23.9 17.2528 23.9 14.8282C23.9 12.2462 22.9793 9.90726 21.2405 8.0963C21.0492 7.89711 21.0557 7.58059 21.2548 7.38934ZM18.9545 9.38934C19.1537 9.19808 19.4702 9.20451 19.6615 9.4037C21.0584 10.8586 21.8 12.7426 21.8 14.8059C21.8 16.7593 21.0372 18.6085 19.667 20.0895C19.4795 20.2922 19.1632 20.3046 18.9605 20.117C18.7578 19.9295 18.7454 19.6132 18.933 19.4105C20.1363 18.1097 20.8 16.5008 20.8 14.8059C20.8 12.9981 20.1564 11.363 18.9402 10.0963C18.7489 9.89711 18.7553 9.58059 18.9545 9.38934ZM16.9502 11.1165C17.162 10.9393 17.4773 10.9674 17.6545 11.1792C18.4717 12.1562 18.903 13.4139 18.903 14.7863C18.903 16.0872 18.4594 17.3216 17.6598 18.3137C17.4866 18.5288 17.1718 18.5626 16.9568 18.3893C16.7418 18.216 16.7079 17.9013 16.8812 17.6863C17.5388 16.8703 17.903 15.8568 17.903 14.7863C17.903 13.6425 17.5499 12.6128 16.8875 11.8208C16.7103 11.609 16.7384 11.2936 16.9502 11.1165Z" fill="white"/>
</svg>
