<svg width="29" height="29" viewBox="0 0 29 29" fill="none" xmlns="http://www.w3.org/2000/svg">
<rect width="29" height="29" rx="6" fill="#3396FD"/>
<path fill-rule="evenodd" clip-rule="evenodd" d="M10 22.5C8.89543 22.5 8 21.6046 8 20.5V14.5C8 13.3954 8.89543 12.5 10 12.5V10C10 7.51472 12.0147 5.5 14.5 5.5C16.9853 5.5 19 7.51472 19 10V12.5C20.1046 12.5 21 13.3954 21 14.5V20.5C21 21.6046 20.1046 22.5 19 22.5H10ZM14.5 7.5C13.1193 7.5 12 8.61929 12 10V12.5H17V10C17 8.61929 15.8807 7.5 14.5 7.5Z" fill="white"/>
</svg>
