<svg width="33" height="23" viewBox="0 0 33 23" fill="none" xmlns="http://www.w3.org/2000/svg">
<path d="M11.3681 19.3883L11.4007 18.8894L11.1713 18.8744L11.0106 19.0388L11.3681 19.3883ZM5.78304 17.6474L6.04728 17.2229L6.03764 17.2169L6.02774 17.2113L5.78304 17.6474ZM5.7034 17.6027L5.9481 17.1666L5.93759 17.1607L5.92682 17.1554L5.7034 17.6027ZM5.62171 17.5619L5.84519 17.1144L5.83419 17.1093L5.62171 17.5619ZM20.7804 1.50228L20.7886 1.00234L18.8752 0.971217L20.5288 1.93433L20.7804 1.50228ZM27.852 17.1849L28.0713 17.6343L28.0767 17.6316L27.852 17.1849ZM27.4926 17.3604L27.2733 16.911L27.2607 16.9172L27.2485 16.924L27.4926 17.3604ZM27.4163 17.4031L27.1721 16.9667L27.1623 16.9722L27.1526 16.9782L27.4163 17.4031ZM22.0639 19.0662L22.4209 18.7161L22.2603 18.5523L22.0314 18.5672L22.0639 19.0662ZM20.4353 19.0933L20.2081 18.648L20.4194 19.5931L20.4353 19.0933ZM21.2847 1.80517L21.5516 1.38236L21.5463 1.37909L21.2847 1.80517ZM20.9941 1.62671L21.2558 1.20051L21.2457 1.19465L20.9941 1.62671ZM13 1.5C19.4666 1.5 24.5 5.63142 24.5 10.4985H25.5C25.5 4.87384 19.7883 0.5 13 0.5V1.5ZM24.5 10.4985C24.5 12.9031 23.0425 15.1053 20.6385 16.6697C18.2375 18.2321 14.9384 19.1205 11.4007 18.8894L11.3355 19.8872C15.0703 20.1312 18.5871 19.1977 21.1839 17.5079C23.7777 15.82 25.5 13.3398 25.5 10.4985H24.5ZM11.0106 19.0388C9.75113 20.3273 8.40794 20.9506 7.37078 21.2313C6.85086 21.3721 6.41187 21.4256 6.10414 21.4346C5.94897 21.4392 5.83623 21.4322 5.7682 21.4227C5.73303 21.4178 5.72166 21.4139 5.72712 21.4156C5.7299 21.4165 5.74638 21.4219 5.77009 21.4345C5.78916 21.4447 5.84395 21.4756 5.89687 21.5394L5.12715 22.1778C5.23579 22.3088 5.38097 22.3548 5.42136 22.3678C5.48979 22.3897 5.56234 22.4037 5.63043 22.4132C5.76894 22.4325 5.94015 22.4399 6.13357 22.4342C6.52302 22.4227 7.03977 22.3569 7.63204 22.1966C8.81926 21.8753 10.3262 21.1695 11.7257 19.7378L11.0106 19.0388ZM5.89687 21.5394C5.92266 21.5705 5.96289 21.6335 5.97445 21.7246C5.98561 21.8126 5.96364 21.8776 5.95291 21.903C5.94311 21.9262 5.94332 21.9149 6.03395 21.8053C6.18739 21.6198 6.46394 21.3052 6.80273 20.7752L5.96017 20.2366C5.66001 20.7061 5.42392 20.9739 5.26342 21.1679C5.19709 21.2481 5.09001 21.3758 5.03163 21.5141C4.99661 21.597 4.96503 21.7135 4.9824 21.8504C5.00016 21.9905 5.0624 22.0997 5.12715 22.1778L5.89687 21.5394ZM6.80273 20.7752C7.1622 20.2129 7.37915 19.5684 7.28021 18.9157C7.17873 18.2463 6.76028 17.6667 6.04728 17.2229L5.5188 18.0718C6.04315 18.3982 6.24338 18.7482 6.29151 19.0656C6.34217 19.3998 6.23965 19.7994 5.96017 20.2366L6.80273 20.7752ZM6.02774 17.2113L5.9481 17.1666L5.4587 18.0387L5.53834 18.0834L6.02774 17.2113ZM5.92682 17.1554L5.84512 17.1146L5.39829 18.0092L5.47999 18.05L5.92682 17.1554ZM5.83419 17.1093C4.35984 16.4171 3.28365 15.5222 2.57382 14.4374C1.86486 13.3539 1.5 12.0483 1.5 10.4985H0.5C0.5 12.2111 0.905429 13.714 1.73703 14.9849C2.56777 16.2545 3.80244 17.2601 5.40922 18.0145L5.83419 17.1093ZM1.5 10.4985C1.5 7.74681 2.75812 5.51447 4.81652 3.95612C6.88489 2.39022 9.77281 1.5 13 1.5V0.5C9.59978 0.5 6.4877 1.43667 4.21292 3.15883C1.92817 4.88855 0.5 7.40548 0.5 10.4985H1.5ZM20.7723 2.00221C23.7977 2.05143 26.4919 2.91961 28.4175 4.40866C30.3334 5.8902 31.5 7.99168 31.5 10.5738H32.5C32.5 7.65497 31.1677 5.27127 29.0292 3.61759C26.9005 1.97143 23.9849 1.05434 20.7886 1.00234L20.7723 2.00221ZM31.5 10.5738C31.5 12.0031 31.1733 13.2126 30.5395 14.2229C29.9052 15.2338 28.944 16.0758 27.6273 16.7383L28.0767 17.6316C29.5253 16.9027 30.6382 15.9471 31.3865 14.7543C32.1354 13.5608 32.5 12.1606 32.5 10.5738H31.5ZM27.6327 16.7356L27.2733 16.911L27.7119 17.8097L28.0713 17.6343L27.6327 16.7356ZM27.2485 16.924L27.1721 16.9667L27.6604 17.8394L27.7367 17.7967L27.2485 16.924ZM27.1526 16.9782C26.4656 17.4045 26.0594 17.9633 25.9609 18.6111C25.8649 19.2422 26.0756 19.8637 26.4219 20.4037L27.2637 19.8639C26.9976 19.449 26.9022 19.073 26.9495 18.7615C26.9944 18.4666 27.1811 18.1374 27.6799 17.8279L27.1526 16.9782ZM26.4219 20.4037C26.7474 20.9113 27.0134 21.213 27.1602 21.39C27.2477 21.4953 27.2455 21.5035 27.2345 21.4776C27.2231 21.4508 27.2008 21.3845 27.2122 21.295C27.224 21.2024 27.2649 21.1383 27.2916 21.1062L28.0604 21.7458C28.1244 21.6688 28.1865 21.5605 28.2042 21.4212C28.2215 21.285 28.1899 21.1694 28.1553 21.0877C28.0978 20.9519 27.9928 20.8273 27.9298 20.7513C27.7758 20.5658 27.5505 20.3111 27.2637 19.8639L26.4219 20.4037ZM27.2916 21.1062C27.3449 21.0422 27.4 21.0111 27.4194 21.0008C27.4436 20.988 27.4605 20.9825 27.4639 20.9814C27.4706 20.9793 27.4609 20.9829 27.4278 20.9875C27.364 20.9963 27.2571 21.003 27.1091 20.9986C26.8158 20.99 26.3966 20.9392 25.8997 20.8051C24.9087 20.5377 23.6248 19.9439 22.4209 18.7161L21.7069 19.4162C23.051 20.787 24.4986 21.4628 25.6392 21.7706C26.2082 21.9241 26.705 21.9872 27.0798 21.9982C27.2659 22.0037 27.4311 21.9966 27.5652 21.978C27.631 21.9688 27.7018 21.9553 27.7688 21.9338C27.8077 21.9214 27.952 21.876 28.0604 21.7458L27.2916 21.1062ZM22.0314 18.5672C21.4985 18.6019 20.9709 18.6102 20.4513 18.5936L20.4194 19.5931C20.9712 19.6107 21.531 19.6019 22.0964 19.5651L22.0314 18.5672ZM20.6626 19.5387C24.3998 17.6314 27 14.3834 27 10.4985H26C26 13.8922 23.7275 16.8518 20.2081 18.648L20.6626 19.5387ZM27 10.4985C27 6.7221 24.8283 3.45136 21.5516 1.38239L21.0177 2.22794C24.068 4.15395 26 7.13441 26 10.4985H27ZM21.5463 1.37909L21.2557 1.20063L20.7324 2.05278L21.023 2.23125L21.5463 1.37909ZM21.2457 1.19465L21.0321 1.07022L20.5288 1.93433L20.7424 2.05876L21.2457 1.19465Z" fill="black"/>
</svg>
