<svg width="29" height="29" viewBox="0 0 29 29" fill="none" xmlns="http://www.w3.org/2000/svg">
<rect width="29" height="29" rx="6" fill="#FBB500"/>
<path fill-rule="evenodd" clip-rule="evenodd" d="M15.0921 5.50268C15.0456 5.21759 14.7982 5 14.5 5C14.1686 5 13.9 5.26863 13.9 5.6L13.899 15.468L12.2307 13.799L12.1476 13.7295C11.9137 13.5675 11.5904 13.5907 11.3821 13.799C11.1478 14.0333 11.1478 14.4132 11.3821 14.6475L14.0757 17.3411L14.1588 17.4105C14.3927 17.5725 14.716 17.5494 14.9243 17.3411L17.6179 14.6475L17.6873 14.5644C17.8493 14.3305 17.8261 14.0072 17.6179 13.799L17.5348 13.7295C17.3009 13.5675 16.9776 13.5907 16.7693 13.799L15.099 15.468L15.1 5.6L15.0921 5.50268ZM11.6 9.35C11.6 9.01863 11.3314 8.75 11 8.75H8.75L8.60437 8.75654C7.78896 8.83011 7.15 9.51544 7.15 10.35V22.1L7.15654 22.2456C7.23011 23.061 7.91544 23.7 8.75 23.7H20.25L20.3956 23.6935C21.211 23.6199 21.85 22.9346 21.85 22.1V10.35L21.8435 10.2044C21.7699 9.38896 21.0846 8.75 20.25 8.75H18L17.9027 8.75785C17.6176 8.80435 17.4 9.05177 17.4 9.35C17.4 9.68137 17.6686 9.95 18 9.95H20.25L20.3306 9.95813C20.5129 9.99543 20.65 10.1567 20.65 10.35V22.1L20.6419 22.1806C20.6046 22.3629 20.4433 22.5 20.25 22.5H8.75L8.66939 22.4919C8.48711 22.4546 8.35 22.2933 8.35 22.1V10.35L8.35813 10.2694C8.39542 10.0871 8.5567 9.95 8.75 9.95H11L11.0973 9.94215C11.3824 9.89565 11.6 9.64823 11.6 9.35Z" fill="white"/>
</svg>
